<?xml version="1.0" encoding="UTF-8" standalone="no"?>
<svg width="568px" height="309px" viewBox="0 0 568 309" version="1.1" xmlns="http://www.w3.org/2000/svg" xmlns:xlink="http://www.w3.org/1999/xlink" xmlns:sketch="http://www.bohemiancoding.com/sketch/ns">
    <!-- Generator: Sketch 3.3.3 (12072) - http://www.bohemiancoding.com/sketch -->
    <title>browser copy 2 + Preview Copy 2 + not available copy 2</title>
    <desc>Created with Sketch.</desc>
    <defs></defs>
    <g id="Customer-Platform" stroke="none" stroke-width="1" fill="none" fill-rule="evenodd" sketch:type="MSPage">
        <g id="LP03" sketch:type="MSArtboardGroup" transform="translate(-46.000000, -2513.000000)">
            <g id="browser-copy-2-+-Preview-Copy-2-+-not-available-copy-2" sketch:type="MSLayerGroup" transform="translate(46.000000, 2513.000000)">
                <g id="browser-copy-2" sketch:type="MSShapeGroup">
                    <rect id="background" fill="#D4D4D4" x="20.1736111" y="0.423611111" width="529" height="32.5763889" rx="4"></rect>
                    <ellipse id="object" fill="#E96E4C" cx="29.7222222" cy="10.9270833" rx="2.86458333" ry="2.86458333"></ellipse>
                    <ellipse id="object" fill="#85C33D" cx="47.2916667" cy="10.9270833" rx="2.86458333" ry="2.86458333"></ellipse>
                    <path d="M38.5069444,13.7916667 C40.0890101,13.7916667 41.3715278,12.509149 41.3715278,10.9270833 C41.3715278,9.34501764 40.0890101,8.0625 38.5069444,8.0625 C36.9248788,8.0625 35.6423611,9.34501764 35.6423611,10.9270833 C35.6423611,12.509149 36.9248788,13.7916667 38.5069444,13.7916667 Z" id="Path" fill="#E6A935"></path>
                    <rect id="background" fill="#E9E8EA" x="20" y="21" width="529" height="287.569444"></rect>
                    <rect id="search" opacity="0.85" fill="#FFFFFF" x="57.03125" y="5.77083333" width="486.788194" height="10.3125"></rect>
                    <path d="M0.5,308.5 L567.500854,308.5" id="Line-Copy-2" stroke="#979797" stroke-linecap="square"></path>
                </g>
                <g id="Preview-Copy-2" transform="translate(407.000000, 38.000000)">
                    <path d="M142,0.439941406 L142,39.2125691 L147.06,34.0141602 L147.06,0.439941406 L142,0.439941406 Z" id="Path-67" fill="#FFFFFF" sketch:type="MSShapeGroup"></path>
                    <rect id="Rectangle-131" fill="#004280" sketch:type="MSShapeGroup" x="0" y="1" width="146" height="33"></rect>
                    <text id="PREVIEW" sketch:type="MSTextLayer" font-family="Open Sans" font-size="14" font-weight="bold" fill="#FFFFFF">
                        <tspan x="14.71875" y="23.119">CONCEPT PHASE</tspan>
                    </text>
                </g>
                <g id="not-available-copy-2" transform="translate(128.000000, 132.000000)">
                    <rect id="Rectangle-157" fill="#D8D8D8" sketch:type="MSShapeGroup" x="0" y="0" width="307" height="73" rx="4"></rect>
                    <text id="NOT-AVAILABLE" sketch:type="MSTextLayer" font-family="Open Sans" font-size="18" font-weight="normal" letter-spacing="1.10000002" fill="#A2A2A2">
                        <tspan x="22" y="44">We are working on this idea</tspan>
                    </text>
                </g>
            </g>
        </g>
    </g>
</svg>